# This file uses centimeters as units for non-parametric coordinates.

mtllib barrier.mtl
g default
v -0.689518 -0.042058 0.423340
v -0.689518 1.321005 -0.031377
v -0.689518 -0.021660 0.486118
v -0.689518 1.321005 0.031402
v -0.756773 -0.021660 0.486118
v -0.756773 1.321005 0.031402
v -0.756773 -0.042058 0.423340
v -0.756773 1.321005 -0.031377
v -0.756773 -0.042058 -0.423340
v -0.756773 1.321005 0.031376
v -0.756773 -0.021660 -0.486119
v -0.756773 1.321005 -0.031402
v -0.689518 -0.021660 -0.486119
v -0.689518 1.321005 -0.031402
v -0.689518 -0.042058 -0.423340
v -0.689518 1.321005 0.031376
v -0.691912 0.598462 0.230521
v -0.691912 0.598462 -0.229933
v -0.691912 0.664471 0.230521
v -0.691912 0.658168 -0.229933
v -0.754380 0.664471 0.230521
v -0.754380 0.658168 -0.229933
v -0.754380 0.598462 0.230521
v -0.754380 0.598462 -0.229933
v 0.689518 -0.042058 0.423340
v 0.689518 1.321005 -0.031377
v 0.689518 -0.021660 0.486118
v 0.689518 1.321005 0.031402
v 0.756773 -0.021660 0.486118
v 0.756773 1.321005 0.031402
v 0.756773 -0.042058 0.423340
v 0.756773 1.321005 -0.031377
v 0.756773 -0.042058 -0.423340
v 0.756773 1.321005 0.031376
v 0.756773 -0.021660 -0.486119
v 0.756773 1.321005 -0.031402
v 0.689518 -0.021660 -0.486119
v 0.689518 1.321005 -0.031402
v 0.689518 -0.042058 -0.423340
v 0.689518 1.321005 0.031376
v 0.691912 0.598462 0.230521
v 0.691912 0.598462 -0.229933
v 0.691912 0.664471 0.230521
v 0.691912 0.658168 -0.229933
v 0.754380 0.664471 0.230521
v 0.754380 0.658168 -0.229933
v 0.754380 0.598462 0.230521
v 0.754380 0.598462 -0.229933
v -0.902258 0.974626 0.038142
v 0.902258 0.974626 0.038142
v -0.902258 1.259341 0.038142
v 0.902258 1.259341 0.038142
v -0.902258 1.259341 -0.038167
v 0.902258 1.259341 -0.038167
v -0.902258 0.974626 -0.038167
v 0.902258 0.974626 -0.038167
vt 0.971694 0.648120
vt 0.197427 0.647854
vt 0.208143 0.615768
vt 0.971985 0.612553
vt 0.200283 0.610480
vt 0.964128 0.612587
vt 0.974890 0.644657
vt 0.200625 0.646047
vt 0.971979 0.612424
vt 0.971700 0.647992
vt 0.197432 0.647984
vt 0.208138 0.615895
vt 0.974866 0.645232
vt 0.200599 0.645481
vt 0.200309 0.609913
vt 0.964151 0.613146
vt 0.465134 0.612857
vt 0.713246 0.612929
vt 0.713237 0.645101
vt 0.465123 0.648425
vt 0.713247 0.648425
vt 0.465133 0.645101
vt 0.465124 0.612929
vt 0.713236 0.612857
vt 0.200625 0.646047
vt 0.200282 0.610480
vt 0.964128 0.612587
vt 0.974891 0.644657
vt 0.971979 0.612424
vt 0.971700 0.647991
vt 0.197432 0.647984
vt 0.208138 0.615895
vt 0.200282 0.610480
vt 0.964128 0.612587
vt 0.974890 0.644657
vt 0.200625 0.646047
vt 0.197427 0.647854
vt 0.208143 0.615768
vt 0.971985 0.612553
vt 0.971694 0.648120
vt 0.713236 0.612857
vt 0.713247 0.648425
vt 0.465133 0.645101
vt 0.465124 0.612929
vt 0.465123 0.648425
vt 0.465134 0.612856
vt 0.713246 0.612929
vt 0.713237 0.645101
vt 0.278879 0.847843
vt 0.237760 0.847846
vt 0.237750 0.694429
vt 0.278869 0.694427
vt 0.160220 0.787708
vt 0.119101 0.787711
vt 0.119092 0.634294
vt 0.160210 0.634292
vt 0.607303 0.647989
vt 0.571064 0.647986
vt 0.571067 0.614158
vt 0.607306 0.614161
vt 0.571067 0.614158
vt 0.607306 0.614161
vt 0.607303 0.647989
vt 0.571064 0.647986
vt 0.713245 0.647920
vt 0.465121 0.647887
vt 0.465125 0.614228
vt 0.713249 0.614261
vt 0.572270 0.612955
vt 0.606097 0.612953
vt 0.606100 0.649192
vt 0.572273 0.649195
vt 0.606100 0.649192
vt 0.572273 0.649195
vt 0.572270 0.612955
vt 0.606097 0.612952
vt 0.713245 0.614228
vt 0.713249 0.647887
vt 0.465126 0.647919
vt 0.465121 0.614261
vt 0.011692 0.377061
vt 0.011696 0.335943
vt 0.984045 0.336037
vt 0.984041 0.377155
vt 0.960883 0.648676
vt 0.217490 0.648741
vt 0.217487 0.613472
vt 0.960880 0.613407
vt 0.212130 0.613422
vt 0.966240 0.613429
vt 0.966240 0.648725
vt 0.212130 0.648719
vt 0.217487 0.613472
vt 0.960880 0.613407
vt 0.960883 0.648676
vt 0.217490 0.648741
vt 0.966239 0.648725
vt 0.212131 0.648718
vt 0.212131 0.613422
vt 0.966239 0.613429
vt 0.960883 0.613472
vt 0.960880 0.648741
vt 0.217487 0.648676
vt 0.217490 0.613407
vt 0.212131 0.648725
vt 0.212131 0.613429
vt 0.966239 0.613422
vt 0.966239 0.648718
vt 0.217487 0.648676
vt 0.217490 0.613407
vt 0.960883 0.613472
vt 0.960880 0.648741
vt 0.966240 0.613423
vt 0.966240 0.648719
vt 0.212130 0.648725
vt 0.212130 0.613429
vt 0.011698 0.273160
vt 0.011689 0.119743
vt 0.984039 0.119684
vt 0.984048 0.273101
vt 0.984156 0.592367
vt 0.011807 0.593800
vt 0.011581 0.440384
vt 0.983930 0.438951
vn 1.000000 0.000000 0.000000
vn 1.000000 0.000000 0.000000
vn 1.000000 0.000000 0.000000
vn 1.000000 0.000000 0.000000
vn 0.000000 0.320771 0.947157
vn 0.000000 0.320771 0.947157
vn 0.000000 0.320771 0.947157
vn 0.000000 0.320771 0.947157
vn -1.000000 0.000000 0.000000
vn -1.000000 0.000000 0.000000
vn -1.000000 0.000000 0.000000
vn -1.000000 0.000000 0.000000
vn 0.000000 -0.316455 -0.948608
vn 0.000000 -0.316455 -0.948608
vn 0.000000 -0.316455 -0.948608
vn 0.000000 -0.316455 -0.948608
vn 0.000000 1.000000 0.000000
vn 0.000000 1.000000 0.000000
vn 0.000000 1.000000 0.000000
vn 0.000000 1.000000 0.000000
vn -1.000000 0.000000 0.000000
vn -1.000000 0.000000 0.000000
vn -1.000000 0.000000 0.000000
vn -1.000000 0.000000 0.000000
vn 0.000000 0.320771 -0.947157
vn 0.000000 0.320771 -0.947157
vn 0.000000 0.320771 -0.947157
vn 0.000000 0.320771 -0.947157
vn 1.000000 -0.000000 0.000000
vn 1.000000 -0.000000 0.000000
vn 1.000000 -0.000000 0.000000
vn 1.000000 -0.000000 0.000000
vn 0.000000 -0.316455 0.948608
vn 0.000000 -0.316455 0.948608
vn 0.000000 -0.316455 0.948608
vn 0.000000 -0.316455 0.948608
vn 0.000000 1.000000 0.000002
vn 0.000000 1.000000 0.000002
vn 0.000000 1.000000 0.000002
vn 0.000000 1.000000 0.000002
vn 1.000000 0.000000 0.000000
vn 1.000000 0.000000 0.000000
vn 1.000000 0.000000 0.000000
vn 1.000000 0.000000 0.000000
vn 0.000000 0.999906 -0.013688
vn 0.000000 0.999906 -0.013688
vn 0.000000 0.999906 -0.013688
vn 0.000000 0.999906 -0.013688
vn -1.000000 0.000000 0.000000
vn -1.000000 0.000000 0.000000
vn -1.000000 0.000000 0.000000
vn -1.000000 0.000000 0.000000
vn -1.000000 0.000000 0.000000
vn -1.000000 0.000000 0.000000
vn -1.000000 0.000000 0.000000
vn -1.000000 0.000000 0.000000
vn 0.000000 0.320771 0.947157
vn 0.000000 0.320771 0.947157
vn 0.000000 0.320771 0.947157
vn 0.000000 0.320771 0.947157
vn 1.000000 0.000000 0.000000
vn 1.000000 0.000000 0.000000
vn 1.000000 0.000000 0.000000
vn 1.000000 0.000000 0.000000
vn 0.000000 -0.316455 -0.948608
vn 0.000000 -0.316455 -0.948608
vn 0.000000 -0.316455 -0.948608
vn 0.000000 -0.316455 -0.948608
vn 0.000000 1.000000 0.000000
vn 0.000000 1.000000 0.000000
vn 0.000000 1.000000 0.000000
vn 0.000000 1.000000 0.000000
vn 1.000000 0.000000 0.000000
vn 1.000000 0.000000 0.000000
vn 1.000000 0.000000 0.000000
vn 1.000000 0.000000 0.000000
vn 0.000000 0.320771 -0.947157
vn 0.000000 0.320771 -0.947157
vn 0.000000 0.320771 -0.947157
vn 0.000000 0.320771 -0.947157
vn -1.000000 0.000000 0.000000
vn -1.000000 0.000000 0.000000
vn -1.000000 0.000000 0.000000
vn -1.000000 0.000000 0.000000
vn 0.000000 -0.316455 0.948608
vn 0.000000 -0.316455 0.948608
vn 0.000000 -0.316455 0.948608
vn 0.000000 -0.316455 0.948608
vn 0.000000 1.000000 0.000002
vn 0.000000 1.000000 0.000002
vn 0.000000 1.000000 0.000002
vn 0.000000 1.000000 0.000002
vn -1.000000 0.000000 0.000000
vn -1.000000 0.000000 0.000000
vn -1.000000 0.000000 0.000000
vn -1.000000 0.000000 0.000000
vn 0.000000 0.999906 -0.013688
vn 0.000000 0.999906 -0.013688
vn 0.000000 0.999906 -0.013688
vn 0.000000 0.999906 -0.013688
vn 1.000000 0.000000 0.000000
vn 1.000000 0.000000 0.000000
vn 1.000000 0.000000 0.000000
vn 1.000000 0.000000 0.000000
vn 0.000000 0.000000 1.000000
vn 0.000000 0.000000 1.000000
vn 0.000000 0.000000 1.000000
vn 0.000000 0.000000 1.000000
vn 0.000000 1.000000 0.000000
vn 0.000000 1.000000 0.000000
vn 0.000000 1.000000 0.000000
vn 0.000000 1.000000 0.000000
vn 0.000000 0.000000 -1.000000
vn 0.000000 0.000000 -1.000000
vn 0.000000 0.000000 -1.000000
vn 0.000000 0.000000 -1.000000
vn 1.000000 0.000000 0.000000
vn 1.000000 0.000000 0.000000
vn 1.000000 0.000000 0.000000
vn 1.000000 0.000000 0.000000
vn -1.000000 0.000000 0.000000
vn -1.000000 0.000000 0.000000
vn -1.000000 0.000000 0.000000
vn -1.000000 0.000000 0.000000
s off
g barrier
usemtl lambert4SG
f 1/1/1 2/2/2 4/3/3 3/4/4
f 3/85/5 4/86/6 6/87/7 5/88/8
f 5/5/9 6/6/10 8/7/11 7/8/12
f 7/89/13 8/90/14 2/91/15 1/92/16
f 2/57/17 8/58/18 6/59/19 4/60/20
f 11/9/21 9/10/22 10/11/23 12/12/24
f 11/93/25 12/94/26 14/95/27 13/96/28
f 16/13/29 15/14/30 13/15/31 14/16/32
f 15/97/33 16/98/34 10/99/35 9/100/36
f 10/61/37 16/62/38 14/63/39 12/64/40
f 17/17/41 18/18/42 20/19/43 19/20/44
f 19/65/45 20/66/46 22/67/47 21/68/48
f 21/21/49 22/22/50 24/23/51 23/24/52
f 25/25/53 27/26/54 28/27/55 26/28/56
f 27/101/57 29/102/58 30/103/59 28/104/60
f 29/29/61 31/30/62 32/31/63 30/32/64
f 31/105/65 25/106/66 26/107/67 32/108/68
f 26/69/69 28/70/70 30/71/71 32/72/72
f 35/33/73 36/34/74 34/35/75 33/36/76
f 35/109/77 37/110/78 38/111/79 36/112/80
f 40/37/81 38/38/82 37/39/83 39/40/84
f 39/113/85 33/114/86 34/115/87 40/116/88
f 34/73/89 36/74/90 38/75/91 40/76/92
f 41/41/93 43/42/94 44/43/95 42/44/96
f 43/77/97 45/78/98 46/79/99 44/80/100
f 45/45/101 47/46/102 48/47/103 46/48/104
f 49/118/105 50/119/106 52/120/107 51/117/108
f 52/83/109 54/84/110 53/81/111 51/82/112
f 54/124/113 56/121/114 55/122/115 53/123/116
f 50/49/117 56/50/118 54/51/119 52/52/120
f 55/53/121 49/54/122 51/55/123 53/56/124
