# This file uses centimeters as units for non-parametric coordinates.

mtllib Concrete.mtl
g default
v 2.597340 0.000000 10.665562
v 2.597340 0.000000 0.000000
v -2.597339 -0.000000 10.665562
v -2.597339 -0.000000 0.000000
vt 0.014588 0.882286
vt 0.014454 0.650302
vt 0.196167 0.650198
vt 0.196301 0.882181
vn -0.000000 1.000000 0.000000
vn -0.000000 1.000000 0.000000
vn -0.000000 1.000000 0.000000
vn -0.000000 1.000000 0.000000
s off
g Concrete polySurface50
usemtl lambert4SG
f 4/1/1 3/2/2 1/3/3 2/4/4
