# This file uses centimeters as units for non-parametric coordinates.

mtllib Finish.mtl
g default
v -7.734173 0.118174 0.000000
v -7.734173 5.391296 0.000000
v 7.734173 0.118174 0.000000
v 7.734173 5.391296 0.000000
vt 0.990486 0.667205
vt 0.009514 0.667205
vt 0.009514 0.332795
vt 0.990486 0.332795
vn 0.000000 -0.000000 1.000000
vn 0.000000 -0.000000 1.000000
vn 0.000000 -0.000000 1.000000
vn 0.000000 -0.000000 1.000000
s off
g Finish
usemtl initialShadingGroup
f 4/1/1 2/2/2 1/3/3 3/4/4
g default
v -7.734173 0.118174 0.000000
v -7.734173 5.391296 0.000000
v 7.734173 0.118174 0.000000
v 7.734173 5.391296 0.000000
vt 0.990486 0.667205
vt 0.009514 0.667205
vt 0.009514 0.332795
vt 0.990486 0.332795
vn 0.000000 -0.000000 1.000000
vn 0.000000 -0.000000 1.000000
vn 0.000000 -0.000000 1.000000
vn 0.000000 -0.000000 1.000000
s off
g Finish
f 8/5/5 6/6/6 5/7/7 7/8/8
