# This file uses centimeters as units for non-parametric coordinates.

mtllib House_Storey.mtl
g default
v 1.333771 0.648007 1.579002
v 1.333771 0.648007 2.013771
v 1.333771 0.778112 2.013771
v 2.461926 0.648007 1.579002
v 2.461926 0.778112 2.013771
v 2.461926 0.648007 2.013771
v 1.333771 0.778112 1.771723
v 2.461926 0.778112 1.771723
v 1.333771 2.262403 1.579002
v 1.333771 2.262403 1.771723
v 2.461926 2.262403 1.771723
v 2.461926 2.262403 1.579002
v 2.586383 0.648007 1.579001
v 2.586383 0.648007 2.013770
v 2.586383 0.778112 2.013770
v 3.714538 0.648007 1.579001
v 3.714538 0.778112 2.013770
v 3.714538 0.648007 2.013770
v 2.586383 0.778112 1.771722
v 3.714538 0.778112 1.771722
v 2.586383 2.262403 1.579001
v 2.586383 2.262403 1.771722
v 3.714538 2.262403 1.771722
v 3.714538 2.262403 1.579001
v -2.412578 0.648007 1.579005
v -2.412578 0.648007 2.013775
v -2.412578 0.778112 2.013775
v -1.284423 0.648007 1.579005
v -1.284423 0.778112 2.013775
v -1.284423 0.648007 2.013775
v -2.412578 0.778112 1.771727
v -1.284423 0.778112 1.771727
v -2.412578 2.262403 1.579005
v -2.412578 2.262403 1.771727
v -1.284423 2.262403 1.771727
v -1.284423 2.262403 1.579005
v -3.665192 0.648007 1.579006
v -3.665192 0.648007 2.013775
v -3.665192 0.778112 2.013775
v -2.537037 0.648007 1.579006
v -2.537037 0.778112 2.013775
v -2.537037 0.648007 2.013775
v -3.665192 0.778112 1.771727
v -2.537037 0.778112 1.771727
v -3.665192 2.262403 1.579006
v -3.665192 2.262403 1.771727
v -2.537037 2.262403 1.771727
v -2.537037 2.262403 1.579006
v -4.173678 0.000000 -4.067076
v -4.173678 2.678273 -4.067076
v -3.839293 0.000000 1.594437
v -3.839293 2.678273 1.594437
v 3.900707 2.678273 1.594437
v 3.900707 0.000000 1.594437
v -4.173678 0.000000 1.240315
v -4.173678 2.678273 1.240315
v -3.839293 0.000000 1.932924
v -3.839293 2.678273 1.932924
v -4.469293 2.678273 1.932924
v -4.469293 0.000000 1.932924
v -4.469293 0.000000 1.240315
v -4.469293 2.678273 1.240315
v 4.530707 2.678273 1.932924
v 4.530707 0.000000 1.932924
v 3.900707 2.678273 1.932924
v 3.900707 0.000000 1.932924
v -1.001963 0.000000 1.594437
v -1.001963 2.678273 1.594437
v 1.063376 0.000000 1.594437
v 1.063376 2.678273 1.594437
v 1.063376 0.000000 1.722364
v -1.001963 0.000000 1.722364
v 1.063376 2.678273 1.722364
v -1.001963 2.678273 1.722364
v 4.235092 0.000000 -4.067076
v 4.235092 0.000000 1.240315
v 4.235092 2.678273 1.240315
v 4.235092 2.678273 -4.067076
v 4.530707 2.678273 1.240315
v 4.530707 0.000000 1.240315
vt 0.279992 0.911951
vt 0.255452 0.911950
vt 0.255458 0.768295
vt 0.279998 0.768296
vt 0.019060 0.911941
vt 0.019066 0.768286
vt 0.035633 0.768287
vt 0.035628 0.911942
vt 0.707758 0.789103
vt 0.724322 0.764560
vt 0.724330 0.819922
vt 0.707763 0.819924
vt 0.066454 0.768288
vt 0.066449 0.911943
vt 0.724327 0.764576
vt 0.707757 0.789114
vt 0.707752 0.819936
vt 0.724319 0.819938
vt 0.518755 0.789131
vt 0.518751 0.764590
vt 0.518757 0.764546
vt 0.518753 0.789087
vt 0.279992 0.911951
vt 0.255452 0.911950
vt 0.255458 0.768295
vt 0.279998 0.768296
vt 0.019060 0.911941
vt 0.019066 0.768286
vt 0.035633 0.768287
vt 0.035628 0.911942
vt 0.707758 0.789103
vt 0.724322 0.764560
vt 0.724330 0.819922
vt 0.707763 0.819924
vt 0.066454 0.768288
vt 0.066449 0.911943
vt 0.724327 0.764576
vt 0.707757 0.789114
vt 0.707752 0.819936
vt 0.724319 0.819938
vt 0.518755 0.789131
vt 0.518751 0.764590
vt 0.518757 0.764546
vt 0.518753 0.789087
vt 0.279992 0.911951
vt 0.255452 0.911950
vt 0.255458 0.768295
vt 0.279998 0.768296
vt 0.019060 0.911941
vt 0.019066 0.768286
vt 0.035633 0.768287
vt 0.035628 0.911942
vt 0.707758 0.789103
vt 0.724322 0.764560
vt 0.724330 0.819922
vt 0.707763 0.819924
vt 0.066454 0.768288
vt 0.066449 0.911943
vt 0.724327 0.764576
vt 0.707757 0.789114
vt 0.707752 0.819936
vt 0.724319 0.819938
vt 0.518755 0.789131
vt 0.518751 0.764590
vt 0.518757 0.764546
vt 0.518753 0.789087
vt 0.279992 0.911951
vt 0.255452 0.911950
vt 0.255458 0.768295
vt 0.279998 0.768296
vt 0.019060 0.911941
vt 0.019066 0.768286
vt 0.035633 0.768287
vt 0.035628 0.911942
vt 0.707758 0.789103
vt 0.724322 0.764560
vt 0.724330 0.819922
vt 0.707763 0.819924
vt 0.066454 0.768288
vt 0.066449 0.911943
vt 0.724327 0.764576
vt 0.707757 0.789114
vt 0.707752 0.819936
vt 0.724319 0.819938
vt 0.518755 0.789131
vt 0.518751 0.764590
vt 0.518757 0.764546
vt 0.518753 0.789087
vt 0.037141 0.368060
vt 0.712962 0.368062
vt 0.712961 0.709102
vt 0.037141 0.709100
vt 0.949920 0.644918
vt 0.949919 0.985958
vt 0.869698 0.985957
vt 0.869699 0.644917
vt 0.869697 0.644918
vt 0.869698 0.985958
vt 0.949919 0.985958
vt 0.949919 0.644918
vt 0.020852 0.709100
vt 0.382146 0.709099
vt 0.382145 0.368060
vt 0.020852 0.368060
vt 0.781504 0.985957
vt 0.781505 0.644917
vt 0.993022 0.644918
vt 0.993021 0.985958
vt 0.743862 0.985957
vt 0.743862 0.644917
vt 0.993021 0.985958
vt 0.993020 0.644918
vt 0.382146 0.368060
vt 0.382145 0.709100
vt 0.020852 0.709099
vt 0.020853 0.368059
vt 0.020852 0.368060
vt 0.283843 0.368061
vt 0.283842 0.709101
vt 0.020851 0.709100
vt 0.398436 0.709099
vt 0.398435 0.368059
vt 0.398436 0.368060
vt 0.398435 0.709100
vt 0.037141 0.368060
vt 0.037141 0.709100
vt 0.712961 0.709102
vt 0.712962 0.368062
vt 0.781504 0.985957
vt 0.869698 0.985957
vt 0.869699 0.644917
vt 0.781505 0.644917
vt 0.743862 0.985957
vt 0.743862 0.644917
vn 0.000000 1.000000 0.000000
vn 0.000000 1.000000 0.000000
vn 0.000000 1.000000 0.000000
vn 0.000000 1.000000 0.000000
vn 0.000000 0.000000 1.000000
vn 0.000000 0.000000 1.000000
vn 0.000000 0.000000 1.000000
vn 0.000000 0.000000 1.000000
vn -1.000000 0.000000 0.000000
vn -1.000000 0.000000 0.000000
vn -1.000000 0.000000 0.000000
vn -1.000000 0.000000 0.000000
vn 0.000000 1.000000 0.000000
vn 0.000000 1.000000 0.000000
vn 0.000000 1.000000 0.000000
vn 0.000000 1.000000 0.000000
vn 1.000000 0.000000 0.000000
vn 1.000000 0.000000 0.000000
vn 1.000000 0.000000 0.000000
vn 1.000000 0.000000 0.000000
vn -1.000000 0.000000 0.000000
vn -1.000000 0.000000 0.000000
vn -1.000000 0.000000 0.000000
vn -1.000000 0.000000 0.000000
vn 0.000000 0.000000 1.000000
vn 0.000000 0.000000 1.000000
vn 0.000000 0.000000 1.000000
vn 0.000000 0.000000 1.000000
vn 1.000000 0.000000 0.000000
vn 1.000000 0.000000 0.000000
vn 1.000000 0.000000 0.000000
vn 1.000000 0.000000 0.000000
vn 0.000000 1.000000 0.000000
vn 0.000000 1.000000 0.000000
vn 0.000000 1.000000 0.000000
vn 0.000000 1.000000 0.000000
vn 0.000000 0.000000 1.000000
vn 0.000000 0.000000 1.000000
vn 0.000000 0.000000 1.000000
vn 0.000000 0.000000 1.000000
vn -1.000000 0.000000 0.000000
vn -1.000000 0.000000 0.000000
vn -1.000000 0.000000 0.000000
vn -1.000000 0.000000 0.000000
vn 0.000000 1.000000 0.000000
vn 0.000000 1.000000 0.000000
vn 0.000000 1.000000 0.000000
vn 0.000000 1.000000 0.000000
vn 1.000000 0.000000 0.000000
vn 1.000000 0.000000 0.000000
vn 1.000000 0.000000 0.000000
vn 1.000000 0.000000 0.000000
vn -1.000000 0.000000 0.000000
vn -1.000000 0.000000 0.000000
vn -1.000000 0.000000 0.000000
vn -1.000000 0.000000 0.000000
vn 0.000000 0.000000 1.000000
vn 0.000000 0.000000 1.000000
vn 0.000000 0.000000 1.000000
vn 0.000000 0.000000 1.000000
vn 1.000000 0.000000 0.000000
vn 1.000000 0.000000 0.000000
vn 1.000000 0.000000 0.000000
vn 1.000000 0.000000 0.000000
vn 0.000000 1.000000 0.000000
vn 0.000000 1.000000 0.000000
vn 0.000000 1.000000 0.000000
vn 0.000000 1.000000 0.000000
vn 0.000000 0.000000 1.000000
vn 0.000000 0.000000 1.000000
vn 0.000000 0.000000 1.000000
vn 0.000000 0.000000 1.000000
vn -1.000000 -0.000001 0.000000
vn -1.000000 -0.000001 0.000000
vn -1.000000 -0.000001 0.000000
vn -1.000000 -0.000001 0.000000
vn 0.000000 1.000000 0.000000
vn 0.000000 1.000000 0.000000
vn 0.000000 1.000000 0.000000
vn 0.000000 1.000000 0.000000
vn 1.000000 0.000000 0.000000
vn 1.000000 0.000000 0.000000
vn 1.000000 0.000000 0.000000
vn 1.000000 0.000000 0.000000
vn -1.000000 0.000000 0.000000
vn -1.000000 0.000000 0.000000
vn -1.000000 0.000000 0.000000
vn -1.000000 0.000000 0.000000
vn 0.000000 0.000000 1.000000
vn 0.000000 0.000000 1.000000
vn 0.000000 0.000000 1.000000
vn 0.000000 0.000000 1.000000
vn 1.000000 0.000000 0.000000
vn 1.000000 0.000000 0.000000
vn 1.000000 0.000000 0.000000
vn 1.000000 0.000000 0.000000
vn 0.000000 1.000000 0.000000
vn 0.000000 1.000000 0.000000
vn 0.000000 1.000000 0.000000
vn 0.000000 1.000000 0.000000
vn 0.000000 0.000000 1.000000
vn 0.000000 0.000000 1.000000
vn 0.000000 0.000000 1.000000
vn 0.000000 0.000000 1.000000
vn -1.000000 -0.000001 0.000000
vn -1.000000 -0.000001 0.000000
vn -1.000000 -0.000001 0.000000
vn -1.000000 -0.000001 0.000000
vn 0.000000 1.000000 0.000000
vn 0.000000 1.000000 0.000000
vn 0.000000 1.000000 0.000000
vn 0.000000 1.000000 0.000000
vn 1.000000 0.000000 0.000000
vn 1.000000 0.000000 0.000000
vn 1.000000 0.000000 0.000000
vn 1.000000 0.000000 0.000000
vn -1.000000 0.000000 0.000000
vn -1.000000 0.000000 0.000000
vn -1.000000 0.000000 0.000000
vn -1.000000 0.000000 0.000000
vn 0.000000 0.000000 1.000000
vn 0.000000 0.000000 1.000000
vn 0.000000 0.000000 1.000000
vn 0.000000 0.000000 1.000000
vn 1.000000 0.000000 0.000000
vn 1.000000 0.000000 0.000000
vn 1.000000 0.000000 0.000000
vn 1.000000 0.000000 0.000000
vn -1.000000 0.000000 0.000000
vn -1.000000 0.000000 0.000000
vn -1.000000 0.000000 0.000000
vn -1.000000 0.000000 0.000000
vn 0.000000 0.000000 1.000000
vn 0.000000 0.000000 1.000000
vn 0.000000 0.000000 1.000000
vn 0.000000 0.000000 1.000000
vn 0.000000 0.000000 1.000000
vn 0.000000 0.000000 1.000000
vn 0.000000 0.000000 1.000000
vn 0.000000 0.000000 1.000000
vn 0.000000 0.000000 1.000000
vn 0.000000 0.000000 1.000000
vn 0.000000 0.000000 1.000000
vn 0.000000 0.000000 1.000000
vn -1.000000 0.000000 0.000000
vn -1.000000 0.000000 0.000000
vn -1.000000 0.000000 0.000000
vn -1.000000 0.000000 0.000000
vn 1.000000 0.000000 0.000000
vn 1.000000 0.000000 0.000000
vn 1.000000 0.000000 0.000000
vn 1.000000 0.000000 0.000000
vn 0.000000 0.000000 -1.000000
vn 0.000000 0.000000 -1.000000
vn 0.000000 0.000000 -1.000000
vn 0.000000 0.000000 -1.000000
vn -1.000000 0.000000 0.000000
vn -1.000000 0.000000 0.000000
vn -1.000000 0.000000 0.000000
vn -1.000000 0.000000 0.000000
vn 0.000000 0.000000 1.000000
vn 0.000000 0.000000 1.000000
vn 0.000000 0.000000 1.000000
vn 0.000000 0.000000 1.000000
vn 0.000000 0.000000 1.000000
vn 0.000000 0.000000 1.000000
vn 0.000000 0.000000 1.000000
vn 0.000000 0.000000 1.000000
vn 1.000000 0.000000 0.000000
vn 1.000000 0.000000 0.000000
vn 1.000000 0.000000 0.000000
vn 1.000000 0.000000 0.000000
vn -1.000000 0.000000 0.000000
vn -1.000000 0.000000 0.000000
vn -1.000000 0.000000 0.000000
vn -1.000000 0.000000 0.000000
vn 1.000000 0.000000 0.000000
vn 1.000000 0.000000 0.000000
vn 1.000000 0.000000 0.000000
vn 1.000000 0.000000 0.000000
vn 1.000000 0.000000 0.000000
vn 1.000000 0.000000 0.000000
vn 1.000000 0.000000 0.000000
vn 1.000000 0.000000 0.000000
vn 0.000000 0.000000 -1.000000
vn 0.000000 0.000000 -1.000000
vn 0.000000 0.000000 -1.000000
vn 0.000000 0.000000 -1.000000
s off
g polySurface72
usemtl lambert4SG
f 9/1/1 10/2/2 11/3/3 12/4/4
f 2/5/5 6/6/6 5/7/7 3/8/8
f 7/9/9 1/10/10 2/11/11 3/12/12
f 8/13/13 7/14/14 3/8/15 5/7/16
f 4/15/17 8/16/18 5/17/19 6/18/20
f 1/10/21 7/9/22 10/19/23 9/20/24
f 7/14/25 8/13/26 11/3/27 10/2/28
f 8/16/29 4/15/30 12/21/31 11/22/32
f 21/23/33 22/24/34 23/25/35 24/26/36
f 14/27/37 18/28/38 17/29/39 15/30/40
f 19/31/41 13/32/42 14/33/43 15/34/44
f 20/35/45 19/36/46 15/30/47 17/29/48
f 16/37/49 20/38/50 17/39/51 18/40/52
f 13/32/53 19/31/54 22/41/55 21/42/56
f 19/36/57 20/35/58 23/25/59 22/24/60
f 20/38/61 16/37/62 24/43/63 23/44/64
f 33/45/65 34/46/66 35/47/67 36/48/68
f 26/49/69 30/50/70 29/51/71 27/52/72
f 31/53/73 25/54/74 26/55/75 27/56/76
f 32/57/77 31/58/78 27/52/79 29/51/80
f 28/59/81 32/60/82 29/61/83 30/62/84
f 25/54/85 31/53/86 34/63/87 33/64/88
f 31/58/89 32/57/90 35/47/91 34/46/92
f 32/60/93 28/59/94 36/65/95 35/66/96
f 45/67/97 46/68/98 47/69/99 48/70/100
f 38/71/101 42/72/102 41/73/103 39/74/104
f 43/75/105 37/76/106 38/77/107 39/78/108
f 44/79/109 43/80/110 39/74/111 41/73/112
f 40/81/113 44/82/114 41/83/115 42/84/116
f 37/76/117 43/75/118 46/85/119 45/86/120
f 43/80/121 44/79/122 47/69/123 46/68/124
f 44/82/125 40/81/126 48/87/127 47/88/128
f 49/89/129 55/90/130 56/91/131 50/92/132
f 57/93/133 58/94/134 59/95/135 60/96/136
f 64/97/137 63/98/138 65/99/139 66/100/140
f 53/101/141 70/102/142 69/103/143 54/104/144
f 62/105/145 61/106/146 60/96/147 59/95/148
f 51/107/149 52/108/150 58/94/151 57/93/152
f 56/109/153 55/110/154 61/106/155 62/105/156
f 53/111/157 54/112/158 66/100/159 65/99/160
f 67/113/161 68/114/162 52/115/163 51/116/164
f 72/117/165 71/118/166 73/119/167 74/120/168
f 69/103/169 70/102/170 73/121/171 71/122/172
f 68/114/173 67/113/174 72/123/175 74/124/176
f 75/125/177 78/126/178 77/127/179 76/128/180
f 79/129/181 63/130/182 64/131/183 80/132/184
f 77/133/185 79/129/186 80/132/187 76/134/188
