# This file uses centimeters as units for non-parametric coordinates.

mtllib Lawn.mtl
g default
v -2.587729 0.000000 9.908758
v 2.587728 0.000000 9.908758
v -2.587729 0.000000 -0.000002
v 2.587728 0.000000 -0.000002
vt 0.198956 0.628857
vt 0.009097 0.628857
vt 0.009097 0.265357
vt 0.198956 0.265357
vn 0.000000 1.000000 0.000000
vn 0.000000 1.000000 0.000000
vn 0.000000 1.000000 0.000000
vn 0.000000 1.000000 0.000000
s off
g polySurface63 polySurface50
usemtl lambert4SG
f 1/1/1 2/2/2 4/3/3 3/4/4
