# This file uses centimeters as units for non-parametric coordinates.

mtllib Road_3.mtl
g default
v 4.500000 0.000000 0.000000
v -4.500000 -0.000000 0.000000
v -4.500000 -0.000000 6.073950
v 4.500000 0.000000 6.073950
v 4.500000 0.000000 12.147900
v -4.500000 -0.000000 12.147900
vt 0.212155 0.820925
vt 0.212160 0.253544
vt 0.595076 0.253547
vt 0.595071 0.820928
vt 0.212155 0.820925
vt 0.595071 0.820928
vt 0.595076 0.253547
vt 0.212160 0.253544
vn -0.000000 1.000000 0.000000
vn -0.000000 1.000000 0.000000
vn -0.000000 1.000000 0.000000
vn -0.000000 1.000000 0.000000
vn -0.000000 1.000000 0.000000
vn -0.000000 1.000000 0.000000
s 1
g polySurface57 polySurface50
usemtl lambert4SG
f 1/1/1 2/2/2 3/3/3 4/4/4
f 5/5/5 4/6/4 3/7/3 6/8/6
