# This file uses centimeters as units for non-parametric coordinates.

mtllib Trees_1.mtl
g default
v 1.156171 8.967823 0.950727
v -0.108036 6.869664 -1.120534
v -1.343833 6.660143 0.340528
v 1.762889 7.238753 1.618243
v 1.963932 5.971288 -0.142416
v 0.538101 7.323875 2.012440
v 1.445267 7.614913 -1.171712
v -0.544600 8.459751 1.359649
v 0.517491 5.822184 0.638780
v 0.411164 5.517456 -0.500497
v 2.430137 7.352016 0.360499
v -0.266181 8.207719 -0.808625
v 1.310856 10.897512 -0.127092
v 3.064961 9.444732 -3.384538
v 1.474278 8.122073 -1.900756
v -1.341663 10.470654 -2.335763
v 1.946935 11.012587 -1.192988
v 3.650172 9.033345 -2.373570
v -2.135566 9.378907 0.098903
v 2.755658 8.670177 -1.281078
v -0.994865 11.344382 -0.848384
v 3.094101 10.396058 -1.442506
v -0.730730 8.335442 -1.532279
v 3.589899 10.636298 -2.609471
v -0.770360 9.214839 -2.613196
v 1.243035 9.272215 -0.188892
v 1.211463 11.478712 -2.663963
v -0.031263 8.324410 -0.595964
v -0.507534 11.042894 0.129113
v 1.144867 9.710791 -3.585747
v 1.226496 8.390983 -2.803205
v 2.625009 10.564993 -3.323225
v -0.393652 6.808610 0.869134
v 1.755459 7.202165 0.330855
v -0.636647 6.117126 -0.456390
v 1.665989 6.663248 -1.408662
v 0.010263 7.166658 -1.152552
v 2.166631 6.280651 -0.435595
v -1.649493 6.805584 -0.336456
v 2.025050 7.437501 -0.889053
v 1.023053 6.081686 0.356026
v 0.167782 7.600604 -0.026191
v -1.792302 11.185282 -2.230196
v 0.387258 8.836563 -2.076415
v -0.252328 8.798018 -0.261136
v -0.069322 12.265672 -1.175877
v 1.493814 11.033259 -2.159490
v -0.551846 11.258724 0.349339
v 0.188095 10.027925 -3.305949
v -1.964177 10.112826 -0.767913
v 1.334251 10.869746 -0.298076
v 1.560880 9.591830 -1.345207
v 0.226130 11.751795 -2.662847
v -0.964477 8.949782 -2.346007
v -2.696406 7.958663 -0.667270
v 2.097468 8.373628 0.197190
v 0.545042 7.260467 1.685033
v -0.881961 9.501728 1.530378
v -0.857437 8.984585 -1.818790
v 0.269613 6.864327 -0.384254
v 1.280459 9.993351 1.390024
v -0.928215 7.883686 1.891019
v -1.762633 7.147114 -1.812638
v -1.068591 6.457992 0.045991
v 0.979943 9.692911 -0.422909
v 0.116171 7.818389 -1.869990
v -0.973260 10.023315 -0.084089
v 0.881582 8.643621 2.374256
v 1.831859 8.365101 1.792556
vn 0.832055 -0.081073 -0.548737
vn 0.832055 -0.081073 -0.548737
vn 0.832055 -0.081073 -0.548737
vn -0.862832 0.477361 -0.166279
vn -0.862832 0.477361 -0.166279
vn -0.862832 0.477361 -0.166279
vn 0.681168 0.655888 -0.325302
vn 0.681168 0.655888 -0.325302
vn 0.681168 0.655888 -0.325302
vn 0.303212 0.433922 0.848395
vn 0.303212 0.433922 0.848395
vn 0.303212 0.433922 0.848395
vn -0.618707 -0.511131 -0.596613
vn -0.618707 -0.511131 -0.596613
vn -0.618707 -0.511131 -0.596613
vn 0.186711 -0.664477 0.723608
vn 0.186711 -0.664477 0.723608
vn 0.186711 -0.664477 0.723608
vn -0.624768 -0.155812 0.765106
vn -0.624768 -0.155812 0.765106
vn -0.624768 -0.155812 0.765106
vn -0.388120 -0.619137 0.682666
vn -0.388120 -0.619137 0.682666
vn -0.388120 -0.619137 0.682666
vn 0.182672 0.840154 -0.510659
vn 0.182672 0.840154 -0.510659
vn 0.182672 0.840154 -0.510659
vn 0.145206 -0.365781 -0.919304
vn 0.145206 -0.365781 -0.919304
vn 0.145206 -0.365781 -0.919304
vn 0.045319 0.529888 0.846856
vn 0.045319 0.529888 0.846856
vn 0.045319 0.529888 0.846856
vn -0.315837 0.936967 -0.149464
vn -0.315837 0.936967 -0.149464
vn -0.315837 0.936967 -0.149464
vn -0.430915 -0.860900 0.270486
vn -0.430915 -0.860900 0.270486
vn -0.430915 -0.860900 0.270486
vn 0.382033 -0.728786 0.568262
vn 0.382034 -0.728786 0.568262
vn 0.382033 -0.728786 0.568262
vn 0.320047 -0.428234 -0.845095
vn 0.320047 -0.428234 -0.845095
vn 0.320047 -0.428234 -0.845095
vn 0.223100 -0.946689 0.232395
vn 0.223100 -0.946688 0.232395
vn 0.223100 -0.946689 0.232395
vn 0.816853 -0.419882 0.395538
vn 0.816853 -0.419882 0.395538
vn 0.816853 -0.419882 0.395538
vn 0.773688 0.445423 0.450562
vn 0.773687 0.445423 0.450562
vn 0.773687 0.445423 0.450562
vn -0.766326 0.058563 -0.639777
vn -0.766326 0.058563 -0.639777
vn -0.766326 0.058563 -0.639777
vn -0.132720 0.210107 -0.968628
vn -0.132720 0.210107 -0.968628
vn -0.132720 0.210107 -0.968628
vn -0.286837 0.451372 -0.844978
vn -0.286837 0.451372 -0.844978
vn -0.286837 0.451372 -0.844978
vn 0.388439 -0.921399 0.011753
vn 0.388439 -0.921399 0.011753
vn 0.388439 -0.921399 0.011753
vn -0.284772 -0.501866 -0.816723
vn -0.284772 -0.501866 -0.816723
vn -0.284772 -0.501866 -0.816723
vn 0.060794 -0.461792 0.884902
vn 0.060794 -0.461792 0.884902
vn 0.060794 -0.461792 0.884902
vn 0.500572 0.776581 0.382558
vn 0.500572 0.776581 0.382558
vn 0.500572 0.776581 0.382558
vn -0.624686 0.602162 0.497161
vn -0.624686 0.602162 0.497161
vn -0.624686 0.602162 0.497161
vn 0.303649 -0.808172 -0.504634
vn 0.303650 -0.808172 -0.504634
vn 0.303649 -0.808172 -0.504634
vn 0.301171 0.818687 -0.488926
vn 0.301171 0.818687 -0.488926
vn 0.301171 0.818687 -0.488926
vn -0.877553 0.473782 -0.073702
vn -0.877552 0.473782 -0.073702
vn -0.877553 0.473782 -0.073702
vn -0.790843 -0.488623 -0.368532
vn -0.790842 -0.488623 -0.368532
vn -0.790843 -0.488623 -0.368532
vn 0.582629 -0.055145 0.810865
vn 0.582629 -0.055145 0.810865
vn 0.582629 -0.055145 0.810865
vn 0.081406 -0.097656 0.991885
vn 0.081406 -0.097656 0.991885
vn 0.081406 -0.097656 0.991885
vn 0.135603 0.963780 0.229650
vn 0.135603 0.963780 0.229650
vn 0.135603 0.963780 0.229650
vn -0.380569 0.833376 -0.400814
vn -0.380569 0.833376 -0.400814
vn -0.380569 0.833376 -0.400814
vn 0.785637 -0.096909 0.611051
vn 0.785637 -0.096909 0.611051
vn 0.785637 -0.096909 0.611051
vn 0.856890 -0.043376 -0.513671
vn 0.856890 -0.043376 -0.513671
vn 0.856890 -0.043376 -0.513671
vn -0.356927 -0.730978 -0.581613
vn -0.356927 -0.730978 -0.581613
vn -0.356927 -0.730978 -0.581613
vn 0.204600 -0.903661 0.376212
vn 0.204600 -0.903661 0.376212
vn 0.204600 -0.903661 0.376212
vn 0.909211 0.093880 0.405614
vn 0.909211 0.093880 0.405614
vn 0.909211 0.093880 0.405614
vn 0.500863 0.780776 0.373531
vn 0.500863 0.780776 0.373531
vn 0.500863 0.780776 0.373531
vn -0.859397 -0.299394 -0.414488
vn -0.859397 -0.299394 -0.414488
vn -0.859397 -0.299394 -0.414488
vn -0.451093 -0.008057 -0.892441
vn -0.451093 -0.008057 -0.892441
vn -0.451093 -0.008057 -0.892441
vn 0.575440 -0.036423 0.817033
vn 0.575440 -0.036423 0.817033
vn 0.575440 -0.036423 0.817033
vn 0.256370 -0.651389 0.714120
vn 0.256370 -0.651389 0.714120
vn 0.256370 -0.651389 0.714120
vn 0.136228 0.961980 0.236722
vn 0.136228 0.961980 0.236722
vn 0.136228 0.961980 0.236722
vn 0.328238 0.935290 0.132260
vn 0.328238 0.935290 0.132260
vn 0.328238 0.935290 0.132260
vn -0.362507 -0.894903 0.260264
vn -0.362507 -0.894903 0.260264
vn -0.362507 -0.894903 0.260264
vn -0.087315 -0.994743 0.053509
vn -0.087315 -0.994743 0.053509
vn -0.087315 -0.994743 0.053509
vn 0.135992 -0.043309 0.989763
vn 0.135992 -0.043309 0.989763
vn 0.135992 -0.043309 0.989763
vn 0.101896 0.980730 0.166690
vn 0.101896 0.980730 0.166690
vn 0.101896 0.980730 0.166690
vn -0.111067 0.462751 -0.879503
vn -0.111067 0.462751 -0.879503
vn -0.111067 0.462751 -0.879503
vn 0.019645 -0.509014 -0.860534
vn 0.019645 -0.509014 -0.860534
vn 0.019645 -0.509014 -0.860534
vn 0.297243 -0.889631 -0.346704
vn 0.297243 -0.889631 -0.346704
vn 0.297243 -0.889631 -0.346704
vn -0.134407 -0.959157 -0.248904
vn -0.134407 -0.959157 -0.248904
vn -0.134407 -0.959157 -0.248904
vn 0.561066 0.263295 -0.784781
vn 0.561066 0.263295 -0.784781
vn 0.561066 0.263295 -0.784781
vn 0.117418 0.100188 -0.988016
vn 0.117418 0.100188 -0.988016
vn 0.117418 0.100188 -0.988016
vn 0.036233 0.545247 -0.837492
vn 0.036233 0.545247 -0.837492
vn 0.036233 0.545247 -0.837492
vn -0.254581 -0.837475 0.483554
vn -0.254581 -0.837475 0.483554
vn -0.254581 -0.837475 0.483554
vn -0.305633 -0.291750 -0.906350
vn -0.305633 -0.291750 -0.906350
vn -0.305633 -0.291750 -0.906350
vn 0.056500 -0.918920 -0.390376
vn 0.056500 -0.918920 -0.390376
vn 0.056500 -0.918920 -0.390376
vn 0.033650 0.738017 0.673942
vn 0.033650 0.738017 0.673942
vn 0.033650 0.738017 0.673942
vn -0.455138 -0.752513 0.475998
vn -0.455138 -0.752513 0.475998
vn -0.455138 -0.752513 0.475998
vn 0.872780 -0.081808 -0.481210
vn 0.872780 -0.081808 -0.481210
vn 0.872780 -0.081808 -0.481210
vn 0.266335 -0.152711 0.951706
vn 0.266335 -0.152711 0.951706
vn 0.266335 -0.152711 0.951706
vn -0.282879 -0.520536 -0.805619
vn -0.282879 -0.520536 -0.805619
vn -0.282879 -0.520536 -0.805619
vn -0.422051 0.793937 0.437650
vn -0.422051 0.793937 0.437650
vn -0.422051 0.793937 0.437650
vn 0.944429 0.213542 0.249908
vn 0.944429 0.213542 0.249908
vn 0.944429 0.213542 0.249908
vn 0.188966 0.955598 0.226107
vn 0.188966 0.955598 0.226107
vn 0.188966 0.955598 0.226107
vn 0.572772 -0.357827 0.737491
vn 0.572772 -0.357827 0.737491
vn 0.572772 -0.357827 0.737491
vn 0.058661 -0.984913 -0.162806
vn 0.058661 -0.984913 -0.162806
vn 0.058661 -0.984913 -0.162806
vn -0.339882 0.892561 -0.296338
vn -0.339882 0.892560 -0.296338
vn -0.339882 0.892560 -0.296338
vn -0.079945 0.933856 -0.348600
vn -0.079945 0.933856 -0.348600
vn -0.079945 0.933856 -0.348600
vn 0.492253 0.294692 -0.819050
vn 0.492253 0.294692 -0.819050
vn 0.492253 0.294692 -0.819050
vn -0.630649 -0.759366 0.160141
vn -0.630649 -0.759366 0.160141
vn -0.630649 -0.759366 0.160141
vn -0.287430 0.340339 -0.895295
vn -0.287430 0.340339 -0.895295
vn -0.287429 0.340339 -0.895295
vn -0.627355 0.726265 0.281007
vn -0.627355 0.726265 0.281007
vn -0.627355 0.726265 0.281007
vn 0.469022 -0.870907 0.146760
vn 0.469022 -0.870907 0.146760
vn 0.469022 -0.870907 0.146760
vn 0.352456 0.725840 0.590703
vn 0.352456 0.725840 0.590703
vn 0.352456 0.725840 0.590703
vn -0.455881 -0.266193 0.849302
vn -0.455881 -0.266193 0.849302
vn -0.455881 -0.266193 0.849302
vn 0.281286 -0.198676 0.938832
vn 0.281286 -0.198676 0.938832
vn 0.281286 -0.198676 0.938832
vn -0.540848 -0.157476 -0.826248
vn -0.540848 -0.157476 -0.826248
vn -0.540848 -0.157476 -0.826247
vn 0.665184 -0.479506 -0.572367
vn 0.665184 -0.479506 -0.572367
vn 0.665184 -0.479506 -0.572367
vn -0.739793 0.581071 0.339210
vn -0.739793 0.581071 0.339210
vn -0.739793 0.581071 0.339210
vn -0.889580 -0.312142 -0.333489
vn -0.889580 -0.312142 -0.333489
vn -0.889580 -0.312142 -0.333489
vn 0.594945 -0.443673 0.670220
vn 0.594945 -0.443673 0.670220
vn 0.594945 -0.443673 0.670220
vn 0.660631 0.740780 0.121703
vn 0.660631 0.740780 0.121703
vn 0.660631 0.740780 0.121703
vn 0.749176 -0.299024 -0.591032
vn 0.749176 -0.299024 -0.591032
vn 0.749176 -0.299024 -0.591032
vn 0.990676 0.098979 0.093616
vn 0.990676 0.098979 0.093616
vn 0.990676 0.098979 0.093616
vn 0.537766 0.824101 -0.177947
vn 0.537766 0.824101 -0.177947
vn 0.537766 0.824101 -0.177947
vn -0.323358 0.872697 -0.365842
vn -0.323358 0.872697 -0.365842
vn -0.323358 0.872697 -0.365842
vn -0.074015 -0.996138 -0.047230
vn -0.074015 -0.996138 -0.047230
vn -0.074015 -0.996138 -0.047230
vn 0.080257 -0.709322 -0.700300
vn 0.080257 -0.709322 -0.700300
vn 0.080257 -0.709322 -0.700300
vn -0.811380 0.149163 0.565166
vn -0.811380 0.149163 0.565166
vn -0.811380 0.149163 0.565166
vn 0.614880 -0.782484 0.098189
vn 0.614880 -0.782484 0.098189
vn 0.614880 -0.782484 0.098189
vn 0.669220 0.235643 -0.704710
vn 0.669220 0.235643 -0.704710
vn 0.669220 0.235643 -0.704710
vn 0.923305 0.351139 0.155596
vn 0.923305 0.351139 0.155596
vn 0.923305 0.351139 0.155596
vn -0.629938 0.647064 -0.429519
vn -0.629938 0.647064 -0.429519
vn -0.629938 0.647064 -0.429519
vn 0.648139 -0.608594 -0.457745
vn 0.648139 -0.608594 -0.457745
vn 0.648139 -0.608594 -0.457745
vn -0.700952 -0.537561 0.468716
vn -0.700952 -0.537561 0.468716
vn -0.700952 -0.537561 0.468716
vn -0.621599 0.303802 -0.722024
vn -0.621599 0.303802 -0.722024
vn -0.621599 0.303802 -0.722024
vn -0.085735 0.603441 0.792786
vn -0.085735 0.603441 0.792785
vn -0.085735 0.603441 0.792786
vn 0.056689 0.858233 -0.510121
vn 0.056689 0.858233 -0.510121
vn 0.056689 0.858233 -0.510121
vn -0.236857 -0.759968 0.605266
vn -0.236857 -0.759968 0.605266
vn -0.236857 -0.759969 0.605266
vn -0.334910 0.214096 0.917604
vn -0.334910 0.214096 0.917604
vn -0.334910 0.214096 0.917604
vn 0.268526 -0.797699 -0.539972
vn 0.268526 -0.797699 -0.539972
vn 0.268526 -0.797699 -0.539972
vn -0.672045 -0.740138 -0.023468
vn -0.672045 -0.740138 -0.023468
vn -0.672045 -0.740138 -0.023468
vn 0.327477 -0.935104 0.135425
vn 0.327477 -0.935104 0.135425
vn 0.327477 -0.935104 0.135425
vn 0.149453 -0.907606 -0.392321
vn 0.149453 -0.907606 -0.392321
vn 0.149453 -0.907606 -0.392321
vn 0.793088 0.565927 -0.225249
vn 0.793088 0.565927 -0.225250
vn 0.793088 0.565927 -0.225249
vn 0.132939 0.973999 -0.183449
vn 0.132939 0.973999 -0.183449
vn 0.132939 0.973999 -0.183449
vn -0.035568 0.014177 -0.999267
vn -0.035568 0.014177 -0.999267
vn -0.035568 0.014177 -0.999267
vn 0.447194 0.408283 -0.795816
vn 0.447194 0.408283 -0.795816
vn 0.447194 0.408283 -0.795816
vn -0.778006 0.583632 0.232552
vn -0.778006 0.583632 0.232552
vn -0.778006 0.583632 0.232552
vn -0.191388 0.930764 0.311526
vn -0.191388 0.930764 0.311526
vn -0.191388 0.930764 0.311526
vn -0.057857 -0.433935 0.899085
vn -0.057857 -0.433935 0.899085
vn -0.057857 -0.433935 0.899085
vn 0.647348 -0.759884 0.059306
vn 0.647347 -0.759884 0.059306
vn 0.647347 -0.759884 0.059306
vn 0.348969 -0.484599 0.802112
vn 0.348969 -0.484599 0.802112
vn 0.348969 -0.484599 0.802112
vn 0.561484 0.372779 0.738764
vn 0.561484 0.372779 0.738764
vn 0.561484 0.372779 0.738764
s off
g polySurface108
usemtl lambert4SG
f 5//1 7//2 11//3
f 8//4 12//5 3//6
f 11//7 7//8 1//9
f 4//10 1//11 6//12
f 10//13 3//14 2//15
f 4//16 6//17 9//18
f 6//19 8//20 3//21
f 6//22 3//23 9//24
f 7//25 12//26 1//27
f 10//28 2//29 7//30
f 1//31 8//32 6//33
f 1//34 12//35 8//36
f 9//37 3//38 10//39
f 4//40 9//41 5//42
f 5//43 10//44 7//45
f 9//46 10//47 5//48
f 4//49 5//50 11//51
f 11//52 1//53 4//54
f 12//55 2//56 3//57
f 7//58 2//59 12//60
f 27//61 30//62 16//63
f 20//64 15//65 18//66
f 30//67 31//68 25//69
f 19//70 28//71 26//72
f 17//73 13//74 22//75
f 21//76 19//77 29//78
f 18//79 31//80 14//81
f 24//82 32//83 27//84
f 21//85 16//86 19//87
f 25//88 23//89 19//90
f 13//91 26//92 22//93
f 29//94 19//95 26//96
f 21//97 29//98 17//99
f 27//100 16//101 21//102
f 22//103 20//104 18//105
f 24//106 18//107 14//108
f 25//109 31//110 23//111
f 20//112 28//113 15//114
f 22//115 18//116 24//117
f 17//118 22//119 24//120
f 16//121 25//122 19//123
f 16//124 30//125 25//126
f 26//127 20//128 22//129
f 26//130 28//131 20//132
f 21//133 17//134 27//135
f 17//136 24//137 27//138
f 19//139 23//140 28//141
f 23//142 15//143 28//144
f 29//145 26//146 13//147
f 29//148 13//149 17//150
f 27//151 32//152 30//153
f 14//154 31//155 30//156
f 18//157 15//158 31//159
f 15//160 23//161 31//162
f 24//163 14//164 32//165
f 32//166 14//167 30//168
f 40//169 36//170 37//171
f 33//172 35//173 41//174
f 39//175 36//176 35//177
f 36//178 38//179 35//180
f 42//181 33//182 34//183
f 39//184 35//185 33//186
f 40//187 38//188 36//189
f 33//190 41//191 34//192
f 37//193 36//194 39//195
f 39//196 33//197 42//198
f 34//199 38//200 40//201
f 42//202 34//203 40//204
f 41//205 38//206 34//207
f 38//208 41//209 35//210
f 37//211 39//212 42//213
f 42//214 40//215 37//216
f 47//217 49//218 53//219
f 50//220 54//221 45//222
f 53//223 49//224 43//225
f 46//226 43//227 48//228
f 52//229 45//230 44//231
f 46//232 48//233 51//234
f 48//235 50//236 45//237
f 48//238 45//239 51//240
f 49//241 54//242 43//243
f 52//244 44//245 49//246
f 43//247 50//248 48//249
f 43//250 54//251 50//252
f 51//253 45//254 52//255
f 46//256 51//257 47//258
f 47//259 52//260 49//261
f 51//262 52//263 47//264
f 46//265 47//266 53//267
f 53//268 43//269 46//270
f 54//271 44//272 45//273
f 49//274 44//275 54//276
f 55//277 62//278 58//279
f 69//280 60//281 56//282
f 65//283 56//284 66//285
f 69//286 56//287 61//288
f 67//289 59//290 55//291
f 56//292 60//293 66//294
f 55//295 64//296 62//297
f 59//298 63//299 55//300
f 58//301 68//302 61//303
f 67//304 65//305 59//306
f 64//307 57//308 62//309
f 58//310 62//311 68//312
f 66//313 60//314 63//315
f 63//316 64//317 55//318
f 64//319 60//320 57//321
f 63//322 60//323 64//324
f 61//325 56//326 65//327
f 61//328 65//329 67//330
f 59//331 66//332 63//333
f 65//334 66//335 59//336
f 67//337 55//338 58//339
f 67//340 58//341 61//342
f 62//343 57//344 68//345
f 57//346 60//347 69//348
f 68//349 57//350 69//351
f 68//352 69//353 61//354
