# This file uses centimeters as units for non-parametric coordinates.

mtllib zabor.mtl
g default
v -15.211180 6.600001 0.715916
v -16.777557 6.600001 0.715915
v -16.777557 6.600001 -0.738059
v -15.211178 6.600001 -0.738058
v -15.211180 0.000000 0.715916
v -16.777557 0.000000 0.715915
v -16.777557 0.000000 -0.738059
v 16.777559 6.599998 0.745491
v 15.272402 6.599998 0.745491
v 15.272402 6.599998 -0.767632
v 16.777559 6.599998 -0.767632
v 16.777559 -0.000000 0.745491
v 15.272402 -0.000000 0.745491
v 15.272402 -0.000000 -0.767632
v -6.105444 6.604492 -0.611297
v -6.105444 6.604492 0.272379
v -3.051466 6.269041 0.272379
v -3.051466 6.269041 0.570662
v -3.051466 -0.004059 0.570662
v 0.002512 -0.004059 0.794262
v 0.002512 6.269039 0.794262
v 6.110472 6.604496 -0.611298
v 3.056490 -0.004059 0.570660
v 3.056490 6.269035 0.570660
v 3.056490 6.269035 0.272377
v 6.110472 6.604496 0.272377
v 6.110472 -0.004059 0.794262
v 6.110472 6.269039 0.794262
v 9.164447 -0.004059 0.570660
v 9.164447 6.269039 0.570660
v 9.164447 6.269039 0.272377
v -9.159424 6.269039 0.272379
v -9.159424 6.269039 0.570662
v -9.159424 -0.004059 0.570662
v -6.105444 -0.004059 0.794260
v -6.105444 6.269036 0.794260
v -15.267381 6.604494 -0.611297
v -15.267381 6.604494 0.272379
v -15.267380 6.269039 0.272379
v -15.267380 6.269039 0.570662
v -15.267380 -0.004059 0.570662
v -12.213402 -0.004059 0.794260
v -12.213402 6.269039 0.794260
v 12.218428 -0.004059 0.794262
v 12.218428 6.269035 0.794262
v 15.272402 6.604492 -0.611298
v 15.272403 -0.004059 0.570660
v 15.272403 6.269035 0.570660
v 15.272403 6.269035 0.272377
v 15.272403 6.604492 0.272377
vt 0.220294 0.605241
vt 0.247949 0.605243
vt 0.247947 0.631957
vt 0.220292 0.631956
vt 0.193586 0.488716
vt 0.220300 0.488717
vt 0.247955 0.488719
vt 0.193579 0.605240
vt 0.220294 0.605241
vt 0.247949 0.605243
vt 0.247947 0.631957
vt 0.220292 0.631956
vt 0.193579 0.605240
vt 0.193586 0.488716
vt 0.220300 0.488717
vt 0.247955 0.488719
vt 0.575496 0.494526
vt 0.575112 0.616429
vt 0.512731 0.619960
vt 0.512279 0.494990
vt 0.512692 0.626137
vt 0.637809 0.494951
vt 0.637925 0.619983
vt 0.637878 0.626162
vt 0.450139 0.632764
vt 0.700418 0.632808
vt 0.700404 0.650202
vt 0.450145 0.650158
vt 0.701081 0.494561
vt 0.700280 0.616570
vt 0.763545 0.495155
vt 0.762986 0.620256
vt 0.762929 0.626442
vt 0.449929 0.494621
vt 0.449933 0.616534
vt 0.387631 0.620204
vt 0.386588 0.495185
vt 0.387600 0.626390
vt 0.324040 0.495050
vt 0.324923 0.616961
vt 0.262896 0.620906
vt 0.260494 0.496148
vt 0.262850 0.627032
vt 0.262852 0.633605
vt 0.262855 0.650990
vt 0.827068 0.495176
vt 0.825194 0.617026
vt 0.889881 0.496784
vt 0.887567 0.620939
vt 0.887547 0.627069
vt 0.887544 0.633648
vt 0.887532 0.651033
vn 0.000000 1.000000 -0.000000
vn 0.000000 1.000000 -0.000000
vn 0.000000 1.000000 -0.000000
vn 0.000000 1.000000 -0.000000
vn -1.000000 0.000000 0.000000
vn -1.000000 0.000000 0.000000
vn -1.000000 0.000000 0.000000
vn -1.000000 0.000000 0.000000
vn -0.000001 0.000000 1.000000
vn -0.000001 0.000000 1.000000
vn -0.000001 0.000000 1.000000
vn -0.000001 0.000000 1.000000
vn 0.000000 1.000000 -0.000000
vn 0.000000 1.000000 -0.000000
vn 0.000000 1.000000 -0.000000
vn 0.000000 1.000000 -0.000000
vn -1.000000 0.000000 0.000000
vn -1.000000 0.000000 0.000000
vn -1.000000 0.000000 0.000000
vn -1.000000 0.000000 0.000000
vn 0.000000 0.000000 1.000000
vn 0.000000 0.000000 1.000000
vn 0.000000 0.000000 1.000000
vn 0.000000 0.000000 1.000000
vn 0.000000 -0.000000 1.000000
vn 0.000000 -0.000000 1.000000
vn -0.000000 0.000000 1.000000
vn -0.000000 0.000000 1.000000
vn 0.000001 1.000000 -0.000002
vn -0.000000 1.000000 0.000006
vn -0.000000 1.000000 0.000007
vn 0.000000 -0.000000 1.000000
vn 0.000000 0.000000 1.000000
vn 0.000001 1.000000 -0.000002
vn 0.000001 1.000000 -0.000002
vn 0.000000 -0.000000 1.000000
vn 0.000000 -0.000000 1.000000
vn 0.000000 -0.000000 1.000000
vn 0.000000 -0.000000 1.000000
vn 0.000000 1.000000 -0.000000
vn 0.000000 1.000000 -0.000000
vn -0.000000 1.000000 0.000000
vn -0.000000 1.000000 0.000000
vn 0.000000 -0.000000 1.000000
vn 0.000000 -0.000000 1.000000
vn -0.000000 1.000000 -0.000003
vn 0.000000 -0.000000 1.000000
vn 0.000000 -0.000000 1.000000
vn -0.000000 1.000000 -0.000002
vn -0.000000 1.000000 -0.000002
vn 0.000000 0.000000 1.000000
vn 0.000000 0.000000 1.000000
vn 0.000000 0.000000 1.000000
vn 0.000000 -0.000000 1.000000
vn 0.000000 -0.000000 1.000000
vn -0.000001 1.000000 0.000008
vn 0.000000 1.000000 0.000001
vn 0.000000 1.000000 -0.000000
vn 0.000000 -0.000000 1.000000
vn 0.000000 0.000000 1.000000
vn 0.000000 0.000000 1.000000
vn -0.073020 0.000000 0.997331
vn -0.073020 0.000000 0.997331
vn 0.000000 1.000000 -0.000000
vn 0.000000 1.000000 -0.000000
vn 0.000000 1.000000 -0.000000
vn 0.000000 -0.000000 1.000000
vn 0.000000 -0.000000 1.000000
vn 0.000000 1.000000 -0.000000
vn 0.000000 1.000000 -0.000000
vn 0.000000 0.000000 1.000000
vn -0.000000 0.000000 1.000000
vn 0.000001 1.000000 0.000004
vn 0.073021 -0.000000 0.997330
vn 0.073021 -0.000000 0.997330
vn 0.000000 1.000000 0.000004
vn 0.000000 1.000000 0.000004
vn 0.000000 0.000000 1.000000
vn 0.000000 0.000000 1.000000
vn 0.000000 1.000000 -0.000000
vn 0.000000 1.000000 -0.000000
s off
g pCube92
usemtl lambert4SG
f 2/1/1 1/2/2 4/3/3 3/4/4
f 2/1/5 3/8/6 7/5/7 6/6/8
f 1/2/9 2/1/10 6/6/11 5/7/12
f 9/9/13 8/10/14 11/11/15 10/12/16
f 9/9/17 10/13/18 14/14/19 13/15/20
f 8/10/21 9/9/22 13/15/23 12/16/24
s 1
f 20/17/25 21/18/26 18/19/27 19/20/28
s 2
f 21/18/29 17/21/30 18/19/31
s 1
f 23/22/32 24/23/33 21/18/26 20/17/25
s 2
f 24/23/34 25/24/35 17/21/30 21/18/29
s 3
f 16/25/36 17/21/37 25/24/38 26/26/39
s 4
f 26/26/40 22/27/41 15/28/42 16/25/43
s 1
f 27/29/44 28/30/45 24/23/33 23/22/32
s 2
f 28/30/46 25/24/35 24/23/34
s 1
f 29/31/47 30/32/48 28/30/45 27/29/44
s 2
f 30/32/49 31/33/50 25/24/35 28/30/46
s 3
f 26/26/39 25/24/38 31/33/51
s 1
f 35/34/52 36/35/53 33/36/54 34/37/55
s 2
f 36/35/56 32/38/57 33/36/58
s 1
f 19/20/28 18/19/27 36/35/53 35/34/52
s 2
f 18/19/31 17/21/30 32/38/57 36/35/56
s 3
f 16/25/36 32/38/59 17/21/37
s 1
f 42/39/60 43/40/61 40/41/62 41/42/63
s 2
f 43/40/64 39/43/65 40/41/66
s 1
f 34/37/55 33/36/54 43/40/61 42/39/60
s 2
f 33/36/58 32/38/57 39/43/65 43/40/64
s 3
f 38/44/67 39/43/68 32/38/59 16/25/36
s 4
f 16/25/43 15/28/42 37/45/69 38/44/70
s 1
f 44/46/71 45/47/72 30/32/48 29/31/47
s 2
f 45/47/73 31/33/50 30/32/49
s 1
f 47/48/74 48/49/75 45/47/72 44/46/71
s 2
f 48/49/76 49/50/77 31/33/50 45/47/73
s 3
f 26/26/39 31/33/51 49/50/78 50/51/79
s 4
f 50/51/80 46/52/81 22/27/41 26/26/40
